<svg xmlns="http://www.w3.org/2000/svg" viewBox="0 0 24 24" fill="currentColor">
  <path d="M23.924 6.162a.02.02 0 0 0-.01-.028l-5.305-3.658a.02.02 0 0 0-.02.005L14.885 6.16l-3.55-2.664a.02.02 0 0 0-.024.002L1.812 10.63a.02.02 0 0 0-.004.028l5.16 3.923a.02.02 0 0 0 .02.002l3.7-2.776 3.7 2.776a.02.02 0 0 0 .02.002l5.16-3.923a.02.02 0 0 0 .004-.028l-9.5-7.125a.02.02 0 0 0-.024.002l-3.55 2.664-3.704-3.668a.02.02 0 0 0-.02-.005L1.812 6.134a.02.02 0 0 0-.01.028l9.5 7.125a.02.02 0 0 0 .024-.002l3.55-2.664 3.704 3.668a.02.02 0 0 0 .02.005l5.305-3.658a.02.02 0 0 0 .01-.028z"/>
</svg>
